<svg width="1000" height="1249.55" xmlns="http://www.w3.org/2000/svg">
 <title>Тело</title>

 <g>
  <title>background</title>
  <rect fill="none" id="canvas_background" height="402" width="582" y="-1" x="-1"/>
 </g>
 <g>
  <title>Layer 1</title>
  <g id="Жук">
   <g id="Конечности">
    <path fill="#e63e11" id="svg_1" d="m179.019999,188.730004a36.22,36.22 0 0 1 -13.14,7c-17,4.61 -33.76,0.8 -50,-5s-28.18,-11.22 -43.13,-20.73a6.67,6.67 0 0 0 -5,-0.94c-12.74,3 -13.93,7.09 -18.93,16.75a5.67,5.67 0 0 0 1.47,7c23.75,13.14 34.59,17.57 58.57,22.14c32.25,4.88 49.32,5.94 70,-9.14c7.16,-6.71 11.73,-13.87 13,-21.95c1.07,-6.71 -0.61,-12.65 -5.64,-2.29c-1.01,2.03 -3.61,4.26 -7.2,7.16z"/>
    <path fill="#e63e11" id="svg_2" d="m248.629999,146.070004c-19.51,-23.08 -35.09,-47.6 -32.87,-66.69c6.92,-40.64 0.74,-35.8 -20.73,-9.14a20.47,20.47 0 0 0 -4.73,9.83c-4,28.19 1.33,46 32.62,83a36.08,36.08 0 0 0 10.16,8.56c13.78,0.48 19.74,-13.11 20.34,-20.09c-0.89,-2.93 -3.01,-3.38 -4.79,-5.47z"/>
    <path fill="#e63e11" id="svg_3" d="m387.189999,6.810004c-0.23,0.14 -6.59,5.46 -6.59,5.46c-30.89,26.66 -29.21,34.95 -43.06,63.44c-1.93,3.29 -1.84,5.64 -6.09,9.67c-9.53,11.19 -12.31,24.05 -16.33,37c-5.07,16.3 -5.23,22.14 -17,36.62a17.77,17.77 0 0 1 -1.81,1.87c-5.75,5.24 -3.4,7.82 -2.18,16.18a1.7,1.7 0 0 0 2.86,1c5.74,-5.67 13.61,-12.21 17,-17.14c13.39,-19.34 10.54,-28.85 19.68,-50.31c4.42,-8.2 4,-10.72 6.18,-17.24a28.16,28.16 0 0 1 1.16,-2.85c11.51,-25 24.88,-55.91 53.31,-80.45c13.09,-9.36 13.01,-15.42 -7.13,-3.25z"/>
    <path fill="#e63e11" id="svg_4" d="m516.139999,105.160004c-29.92,17.51 -66.92,37 -83.55,68.75c-3.63,6.94 6.88,13.12 10.53,6.15c15.48,-29.59 51.46,-50.61 77.9,-69.42c6.34,-4.54 7.61,-12.83 -4.88,-5.48z"/>
    <path fill="#e63e11" id="svg_5" d="m381.719999,241.980004c-11.53,-6.4 -15.54,-8.84 -27.74,-16.2c-9.94,-1.76 -32.91,-0.57 -43.54,0.75c-20.79,9.77 -38.29,27.34 -52.16,45.47c-11.44,14.95 -10.44,22.72 2.44,9.3c28.65,-29.87 30.81,-32.14 40.08,-35.66c11.47,-0.84 24.56,-1.32 33.17,-1a5.74,5.74 0 0 1 3.15,1.08c10,7.27 17.7,15.58 24.53,20.87a3.09,3.09 0 0 0 3.83,-0.08c12.35,-9.9 25.81,-20.47 16.24,-24.53z"/>
    <path fill="#e63e11" id="svg_6" d="m295.669999,275.270004c-6.14,6.5 -13.24,14.76 -20.34,20.27c-1.31,2.2 1.24,7 4.7,6.28c7.1,-5.51 14.69,-15.35 20.87,-21.84c1.02,-2.24 -1.57,-6.3 -5.23,-4.71z"/>
    <path fill="#e63e11" id="svg_7" d="m342.159999,279.540004c-5.46,6.11 -11.52,12.71 -17.16,18.65c-2.62,2.41 0.36,3.23 4,2.88c5.64,-5.95 11.84,-12.65 17.3,-18.76c0.09,-1.46 -2.04,-5.15 -4.14,-2.77z"/>
    <path fill="#e63e11" id="svg_8" d="m411.799999,288.710004c-4.33,6.08 -9,11.11 -14.43,20.93c-4.37,9.35 -5.13,12.65 -13.51,19.51c-5.45,3.28 -8,5.26 -20,9.45a83.45,83.45 0 0 1 -21,3.28c-3,0.15 -15.24,-2.13 -14.78,-5c1.68,-6.86 1,-9.75 -5,-5.71c-6.86,5.6 -22.49,20.23 -17.55,23c12.57,3.36 20.91,4.19 35.66,3.63a38.75,38.75 0 0 0 8.74,-0.91c6.54,-1.86 5.28,-1 14.43,-5.08a25.66,25.66 0 0 0 5.69,-3c20.54,-17.45 45.71,-37.85 46.96,-44.65c2.81,-16.67 3.93,-28 -5.21,-15.45z"/>
    <path fill="#e63e11" id="svg_9" d="m237.639999,618.920004c-21.48,-4.49 -40.11,-19.76 -58.34,-31.33c-15.56,-9.85 -31.1,-19.71 -46.25,-30.2q-28,-19.41 -54.49,-41c-17.46,-14.23 -52.23,-37.28 -48.87,-67.46c4,-26.82 -24.84,8.23 -24.38,25.91c14.62,39.32 63.51,72.32 98.28,97.44c19.81,14.3 40.3,27.52 60.94,40.58s41,29.19 65.33,34.28c18.37,3.84 26.23,-24.36 7.78,-28.22z"/>
    <path fill="#e63e11" id="svg_10" d="m38.729999,899.520004c-8.56,2.83 -10.87,1.63 -16.15,3.56c-1.9,0.69 -16.87,9.35 -21.68,16.2c-4.12,19.05 7.15,4.9 11.42,2.59c7.47,-2.9 11.79,-0.51 21.64,-2.84c21.57,-10.77 77.82,-29.47 114.19,-42.37c38.12,-17.83 69.09,-27.94 97.84,-55.78c7.11,-11.38 0.71,-15.24 -6.4,-5.89c-13.3,12 -30.56,20.05 -46,28.11a7.31,7.31 0 0 0 -2.25,0.43c-48.13,17.63 -103.26,42.29 -152.61,55.99"/>
    <path fill="#e63e11" id="svg_11" d="m729.169999,371.160004c-6.14,19.41 -2.9,26.83 -2.68,47.11c0.26,24.21 -7.14,45 -14.41,66.57c-7.09,21.11 -15.33,45.87 -28.92,63.71c-19.5,25.61 -49.63,27.61 -71.74,18.94c-11.7,-4.58 -16.77,14.28 -5.19,18.81c38.81,15.19 58.64,-1.12 103.47,-54.91c17.51,-21 25.34,-48.61 30.81,-75.31c6.19,-30.23 0.27,-65.51 10.59,-94.09c7.35,-20.34 -18.15,-2.73 -21.93,9.17z"/>
    <path fill="#e63e11" id="svg_12" d="m844.909999,700.580004c-26.9,-4.17 -55.68,2.75 -81.28,17c-37.17,20.65 -56.34,5.85 -72.38,36c-6.92,13 -1.33,18.23 9.36,7.25a28.47,28.47 0 0 1 9.81,-6.71c25.67,-10.21 42.25,-13.74 64.6,-23.52c13.94,-6.1 23.86,-9.88 39.41,-9.86c38.24,0 50.62,34.94 24.4,51.72c-7.51,4.8 -5.93,13.39 4.88,6.37c16.91,-11 22.5,-14.81 25.72,-36.15c2.92,-19.52 -4.5,-38.99 -24.52,-42.1z"/>
    <path fill="#e63e11" id="svg_13" d="m990.009999,1043.480004c-11.34,11.16 -40.65,20.05 -56.8,14.56c-16.31,-5.55 -11.51,-20.17 -19,-33.43c-10.83,-19.06 -40.49,-25.5 -59.46,-32.06c-59.09,-20.44 -120.83,-30.88 -183.24,-32.87c-7.39,-0.24 -32.59,27.32 -10.71,19.06c40.25,-5.18 80.76,6.31 120.29,15.53q27.89,6.5 55.06,15.69c15.87,5.35 32.65,15.91 48.23,23.36c28,13.41 -7.32,45.35 45.61,45.33c25.55,0 44.61,-5.91 64.53,-29.07c9.43,-11.04 5.94,-16.42 -4.51,-6.1z"/>
    <path fill="#e63e11" id="svg_14" d="m305.579999,980.950004c4.29,-12.68 -15.66,-0.71 -18,6.34l-5.09,15c-8.86,4.76 -13.96,15.61 -18.96,24.57c-15.8,28.34 -37.35,54.14 -56.74,80.1a443.66,443.66 0 0 1 -62.51,68.08c-23,20.23 -51.95,51.93 -83.7,55c-7.35,0.72 -29.29,22.7 -10.71,19.06c37.1,-2.87 41.44,-15 59.44,-29.43c24.31,-19.4 48.48,-39.51 70.22,-61.79c20.72,-21.27 38.14,-45.14 55.72,-69c9.83,-13.34 19.93,-26.53 29.41,-40.13c3.72,-5.33 35.32,-55.41 40.93,-67.81"/>
   </g>
   <path fill="#e63e11" id="svg_15" d="m461.299999,175.000004c-34.64,-57.23 -138.9,-53.25 -193.76,-33.77c-18.78,6.67 -26,12.22 -48.35,29.69c-7.06,13.58 -5,39.55 -4.83,54.45c0.25,21.53 0.14,43.1 0.85,64.62c1.42,43.26 18,71.92 45.41,104.42c23.84,28.3 50.34,55 88.42,60.72c7,1 24.95,-22 21.34,-22.5c-14.1,-2.1 -20,-2.64 -31.29,-9.75c25.36,5.28 41.83,2.91 65.85,-9.72c20.25,-10.65 34.8,-29.67 47.11,-48.79c18.31,-28.47 26.39,-60.37 26.63,-93.74c0.22,-31.6 -0.49,-67.74 -17.38,-95.63zm-25.5,196.67c-27.9,41 -69.89,36.66 -112.57,30.48c-3.24,-0.47 -7,0.66 -11.38,6.1c-5.11,-4.88 -16.1,-18 -20.86,-23.3c-21.75,-24.27 -45.3,-50.64 -51.73,-83.55c-6.75,-34.53 -4.31,-73.65 -3.73,-108.7c-0.08,-31.94 13.71,-31.48 36,-36.4a247.7,247.7 0 0 1 55.79,-5.63c33.51,0.35 73.87,5.09 99.7,28.51c23.46,21.27 28.14,54.15 29.68,84.19c1.9,36.05 0.28,77.2 -20.9,108.3z"/>
   <path fill="#e63e11" id="svg_16" d="m637.589999,629.810004c-20.33,-67.22 -44.47,-140.07 -94.47,-191.42c-43.37,-44.54 -107.09,-54.7 -157.95,-48.23a21.26,21.26 0 0 0 -8.35,3c-9.18,5.57 -29,18.8 -25.59,22.77s15.73,0.53 19.69,2.57c-109.39,86.57 -140.39,193.97 -152.95,307.87c-7,63.27 -7.48,132.66 20.3,191.21c27.37,57.69 63.94,126.66 116.49,164.77c66.45,45.3 124,58 181.05,46a33.31,33.31 0 0 0 10.33,-4.08c49.2,-29.64 60.46,-56.52 82.63,-95.59c30.76,-53.31 31.34,-120.52 34.87,-181.7a625.89,625.89 0 0 0 -26.05,-217.17zm-173.51,-212.34c58.73,28.37 103.12,96.69 126.16,155.41s42.38,120.43 50.08,183.08c7.39,60.07 2.37,121.37 -3.75,181.34c-5.53,54.14 -27.38,128.55 -80.24,164.62a42.07,42.07 0 0 1 -19.92,7.07c-51.74,4.68 -112.23,-15 -154.21,-42.18c-48,-31 -74.4,-82.11 -102,-130.64c-15.91,-27.93 -31.47,-56 -37.9,-87.85c-5.53,-27.39 -6.53,-55.94 -6.29,-83.81c1.02,-123.52 34.32,-253.65 140.08,-343.56c11.69,2.68 13.78,1.54 24.79,-6.6c0.07,-0.05 16.36,-15 63.19,3.13"/>
  </g>
 </g>
</svg>