<svg xmlns="http://www.w3.org/2000/svg" viewBox="0 0 172 172" style=" fill:#000000;"><g fill="none" fill-rule="nonzero" stroke="none" stroke-width="1" stroke-linecap="butt" stroke-linejoin="miter" stroke-miterlimit="10" stroke-dasharray="" stroke-dashoffset="0" font-family="none" font-weight="none" font-size="none" text-anchor="none" style="mix-blend-mode: normal"><path d="M0,172v-172h172v172z" fill="none"></path><g fill="#000000"><path d="M86.08398,26.88025c-6.99121,-0.14418 -14.6916,0.94491 -22.65479,4.19922l-0.04199,0.01575l-0.04199,0.021c-0.40163,0.18073 -0.99637,0.38158 -1.73743,0.77161c-0.58525,0.23852 -1.12159,0.49718 -1.44348,0.63513l-0.03674,0.01575l-0.03674,0.01575c-17.78726,8.25938 -26.37665,23.27102 -30.31836,33.44678c-0.83614,2.14227 -1.74124,4.23045 -2.75574,6.18335l-0.0105,0.01575l-0.0105,0.021c-2.22553,4.45107 -4.91661,8.64391 -8.02051,12.49793c-3.74478,4.56623 -7.93677,10.20683 -11.14893,16.07251c-3.21459,5.87012 -5.55225,11.96308 -5.07581,17.7522v0.00525v0.00525c0.08483,1.06661 0.29153,2.13406 0.61938,3.18091c0.09459,0.73044 0.23549,1.45041 0.47766,2.14685c1.82117,5.23782 6.47059,8.81424 12.49268,10.83398c6.02208,2.01974 13.59002,2.6732 22.28211,2.19934c17.38418,-0.94772 39.29626,-6.49252 61.51855,-16.20373c22.22141,-9.71082 40.89843,-21.88819 53.26184,-33.93494c6.18171,-6.02337 10.80467,-12.0117 13.4585,-17.80469c1.7424,-3.80345 2.61447,-7.6056 2.3883,-11.19092c0.09172,-1.54724 -0.0126,-3.2861 -0.61413,-5.10205c-0.61754,-1.96801 -1.69722,-3.71073 -3.06018,-5.20178c-3.92081,-4.31741 -9.99207,-6.74887 -16.49243,-8.38794c-6.50302,-1.63974 -13.51301,-2.40759 -19.40564,-2.77673c-4.93671,-0.31016 -9.84431,-1.16119 -14.62378,-2.55627l-0.0105,-0.00525h-0.00525c-2.1536,-0.61531 -4.30032,-1.36443 -6.44055,-2.19934l-0.0105,-0.00525c-5.0726,-2.01139 -11.80888,-3.98527 -19.55261,-4.52991c-0.96857,-0.06812 -1.95121,-0.11588 -2.94995,-0.13647zM86.04199,32.25c8.17479,0.17669 15.31021,2.20997 20.57617,4.29895h0.00525l0.00525,0.00525c2.26364,0.88337 4.57624,1.69368 6.93396,2.36731c5.15928,1.50467 10.45448,2.42124 15.77857,2.75574c2.1451,0.13438 4.4556,0.34703 6.80273,0.61414c-0.59389,0.00665 -1.14711,-0.01619 -1.75317,0c-17.10052,0.45695 -38.96171,4.76635 -61.2561,14.5083c-22.2846,9.73767 -40.5329,22.7959 -52.79468,35.08447c-0.27537,0.27597 -0.50752,0.54373 -0.77686,0.81885c1.20546,-1.60679 2.41537,-3.16704 3.58508,-4.5929l0.00525,-0.0105l0.0105,-0.0105c3.3461,-4.15474 6.24293,-8.66981 8.63989,-13.46375c1.1269,-2.17344 2.09763,-4.42543 2.9762,-6.67676l0.00525,-0.00525c3.63704,-9.38924 11.43889,-23.0232 27.56787,-30.51257c0.6686,-0.29084 1.17176,-0.55131 1.39624,-0.62988l0.18897,-0.06299l0.17322,-0.09448c0.26295,-0.13841 0.73907,-0.31787 1.349,-0.58789l0.0105,-0.00525c7.22599,-2.95107 14.21276,-3.93771 20.57092,-3.80029zM134.53772,47.66113c8.15759,-0.21798 15.07426,0.51304 20.06177,1.88965c4.98751,1.37661 7.76818,3.47911 8.45093,5.00757c1.4498,3.24542 1.17011,7.27464 -1.07605,12.17773c-2.24616,4.9031 -6.46116,10.47975 -12.31946,16.18799c-11.71659,11.41648 -29.94693,23.37277 -51.66614,32.86413c-21.71834,9.49098 -43.17738,14.86423 -59.6604,15.76282c-8.24151,0.4493 -15.23101,-0.23927 -20.27698,-1.93164c-5.04597,-1.69237 -7.97294,-4.19377 -9.1228,-7.50086c-0.62901,-1.80891 -0.08822,-5.5048 2.46179,-10.21985c2.55001,-4.71505 6.89015,-10.34694 12.74988,-16.21948c11.71946,-11.74507 29.49315,-24.48885 51.14648,-33.95068c21.64354,-9.45755 42.93579,-13.63141 59.25098,-14.06738zM121.43091,72.32629c-1.87567,-0.05667 -3.89489,0.03594 -6.05212,0.2572c-8.62896,0.88504 -19.42883,3.89073 -30.6648,8.80261c-11.23558,4.91172 -20.778,10.79308 -27.28967,16.52393c-3.25584,2.86542 -5.76614,5.68145 -7.34864,8.50342c-1.58249,2.82197 -2.30732,5.93097 -1.0813,8.73438c1.22389,2.80448 3.99799,4.38284 7.14392,5.13879c3.14593,0.75596 6.91824,0.82605 11.23291,0.38318c8.62935,-0.88575 19.42766,-3.89607 30.6648,-8.80786c11.23558,-4.91172 20.778,-10.79308 27.28967,-16.52393c3.25584,-2.86542 5.76614,-5.68145 7.34864,-8.50342c1.58249,-2.82197 2.30732,-5.93097 1.0813,-8.73437c-1.22611,-2.80254 -3.99795,-4.378 -7.14392,-5.13354c-1.57298,-0.37777 -3.30511,-0.58371 -5.18079,-0.64038zM121.27869,77.70654c1.58807,0.04892 2.96335,0.21509 4.07849,0.48291c2.23029,0.53563 3.15834,1.34466 3.47485,2.06811c0.3166,0.72394 0.27646,1.95252 -0.84509,3.95251c-1.12155,1.99999 -3.2516,4.48813 -6.2096,7.09143c-5.916,5.2066 -15.08345,10.91118 -25.89343,15.63684c-10.81112,4.72558 -21.22419,7.578 -29.06384,8.38269c-3.91983,0.40235 -7.19784,0.27328 -9.42724,-0.26245c-2.22941,-0.53572 -3.15356,-1.33866 -3.46961,-2.06287h-0.00525c-0.3166,-0.72394 -0.27646,-1.95252 0.84509,-3.95251c1.12155,-1.99999 3.25684,-4.49338 6.21484,-7.09668c5.916,-5.2066 15.08345,-10.90593 25.89343,-15.63159c10.80959,-4.7255 21.21922,-7.58389 29.05859,-8.38794c1.95984,-0.20101 3.76069,-0.26937 5.34875,-0.22046zM143.7865,106.27698c-0.67792,-0.11556 -1.403,0.02801 -2.01038,0.45667c-1.20937,0.86 -1.49769,2.53574 -0.64038,3.7478l3.10742,4.38293c0.52406,0.74175 1.3529,1.13379 2.19409,1.13379c0.5375,0 1.08071,-0.15747 1.55371,-0.49341c1.20938,-0.86 1.4977,-2.53574 0.64038,-3.7478l-3.10742,-4.38818c-0.43,-0.60603 -1.05951,-0.97623 -1.73743,-1.0918zM132.2229,113.30542c-0.34555,0.05173 -0.69002,0.17393 -1.00781,0.36743c-1.26581,0.774 -1.66633,2.42681 -0.89233,3.69531l2.80298,4.58765c0.50525,0.83044 1.39339,1.28601 2.29907,1.28601c0.47569,0 0.95549,-0.12224 1.39624,-0.39368c1.26581,-0.774 1.66633,-2.42681 0.89234,-3.69531l-2.80298,-4.58765c-0.5805,-0.95137 -1.65084,-1.41497 -2.6875,-1.25977zM121.2262,119.65674c-0.34807,0.03074 -0.69434,0.1311 -1.02356,0.30444c-1.30881,0.69875 -1.80629,2.32876 -1.10754,3.63757l2.52478,4.74512c0.48644,0.90569 1.41837,1.41724 2.37781,1.41724c0.42463,0 0.85395,-0.09738 1.25977,-0.30969c1.30881,-0.69875 1.80629,-2.33401 1.10754,-3.64282l-2.52478,-4.73987c-0.52608,-0.97959 -1.56979,-1.5042 -2.61401,-1.41199zM109.86206,125.38342c-0.34942,0.01243 -0.70068,0.09541 -1.0393,0.25195c-1.34375,0.62619 -1.9227,2.2229 -1.29651,3.56934l2.26758,4.87109c0.45687,0.97556 1.42761,1.55371 2.4408,1.55371c0.37625,0 0.7656,-0.0852 1.13379,-0.2572c1.34375,-0.62619 1.9227,-2.2229 1.29651,-3.56934l-2.27283,-4.87109c-0.46964,-1.0058 -1.48178,-1.58575 -2.53003,-1.54846zM98.20398,130.51172c-0.34845,-0.00554 -0.70257,0.06039 -1.04456,0.19946c-1.37869,0.55363 -2.04179,2.11985 -1.48548,3.49585l2.01563,4.98132c0.42194,1.04812 1.42379,1.68494 2.48804,1.68494c0.33594,0 0.67994,-0.06509 1.00781,-0.19946c1.37869,-0.55363 2.04179,-2.11985 1.48547,-3.49585l-2.01562,-4.98132c-0.41723,-1.03402 -1.40594,-1.66831 -2.45129,-1.68494zM86.30969,135.02063c-0.34832,-0.02494 -0.70366,0.01298 -1.05505,0.13123c-1.40288,0.48375 -2.1555,2.01424 -1.67444,3.41712l1.74268,5.08105c0.38162,1.11531 1.42253,1.82141 2.54053,1.82141c0.29025,0 0.58634,-0.05291 0.87659,-0.14697c1.40287,-0.48375 2.15025,-2.00899 1.66919,-3.41186l-1.74267,-5.08631c-0.36282,-1.05216 -1.31184,-1.73083 -2.35681,-1.80566zM74.19495,138.85767c-0.34564,-0.04451 -0.70555,-0.02461 -1.0603,0.07348c-1.42975,0.39775 -2.26384,1.88238 -1.86341,3.31213l1.44873,5.17554c0.33325,1.18519 1.41333,1.96313 2.58777,1.96313c0.23919,0 0.48249,-0.03254 0.72437,-0.09973c1.42975,-0.39775 2.26384,-1.88238 1.8634,-3.31213l-1.44873,-5.17554c-0.30033,-1.07231 -1.21492,-1.80336 -2.25183,-1.93689z"></path></g></g></svg>